<svg width="50" height="50" xmlns="http://www.w3.org/2000/svg" fill="#000000">

 <g>
  <title>Layer 1</title>
  <path fill="#ffffff" id="svg_1" d="m50.0625,10.4375c-1.84766,0.82031 -3.82812,1.37109 -5.91016,1.62109c2.125,-1.27343 3.75782,-3.28906 4.52344,-5.6875c-1.98437,1.17579 -4.1914,2.03125 -6.53125,2.49219c-1.875,-2 -4.54687,-3.24609 -7.5039,-3.24609c-5.67969,0 -10.28516,4.60156 -10.28516,10.28125c0,0.80469 0.09375,1.58984 0.26953,2.34375c-8.54687,-0.42969 -16.12109,-4.52344 -21.19531,-10.7461c-0.88672,1.52344 -1.39063,3.28907 -1.39063,5.17188c0,3.56641 1.8125,6.71484 4.57422,8.5625c-1.6875,-0.05469 -3.27344,-0.51953 -4.66015,-1.28906c0,0.04297 0,0.08593 0,0.1289c0,4.98438 3.54687,9.13672 8.24609,10.08594c-0.85938,0.23438 -1.76953,0.35938 -2.70703,0.35938c-0.66406,0 -1.3086,-0.0625 -1.9375,-0.1875c1.3125,4.08203 5.10937,7.0625 9.60547,7.14453c-3.51563,2.75781 -7.94922,4.39843 -12.76953,4.39843c-0.83204,0 -1.64844,-0.04687 -2.44922,-0.14453c4.54687,2.92188 9.95312,4.6211 15.76172,4.6211c18.91406,0 29.25781,-15.66797 29.25781,-29.25391c0,-0.44531 -0.01172,-0.89453 -0.02735,-1.33203c2.00782,-1.44922 3.75,-3.26172 5.12891,-5.32422z"/>
 </g>
</svg>